<svg width="20" height="20" viewBox="0 0 20 20" fill="none" xmlns="http://www.w3.org/2000/svg">
<path fill-rule="evenodd" clip-rule="evenodd" d="M10 0C4.48 0 0 4.48 0 10C0 15.52 4.48 20 10 20C15.52 20 20 15.52 20 10C20 4.48 15.52 0 10 0ZM5.75 11C5.75 10.31 6.31 9.75 7 9.75C7.69 9.75 8.25 10.31 8.25 11C8.25 11.69 7.69 12.25 7 12.25C6.31 12.25 5.75 11.69 5.75 11ZM11.75 11C11.75 10.31 12.31 9.75 13 9.75C13.69 9.75 14.25 10.31 14.25 11C14.25 11.69 13.69 12.25 13 12.25C12.31 12.25 11.75 11.69 11.75 11ZM2 10C2 14.41 5.59 18 10 18C14.41 18 18 14.41 18 10C18 9.21 17.88 8.45 17.67 7.74C16.95 7.91 16.2 8 15.42 8C12.05 8 9.07 6.33 7.26 3.77C6.28 6.16 4.41 8.09 2.05 9.14C2.02 9.42 2 9.71 2 10Z" fill="#9AA1A8"/>
</svg>
