<svg width="156" height="35" viewBox="0 0 156 35" fill="none" xmlns="http://www.w3.org/2000/svg">
<path d="M25.1027 9.11621V0.408535L16.3758 9.11621V12.3589H17.7176L21.8618 8.22693V12.3589L29.1264 12.3589L29.1264 22.4852H23.1372L18.9895 26.6242V22.4852H11.7582V20.2419V16.9713L8.5155 20.2419V25.4029V25.7279H15.7486V34.4373L24.472 25.7279L32.3708 25.7279V9.11621H25.1027Z" fill="#231F20"/>
<path d="M49.8763 27.3637C47.0058 27.3637 44.8411 26.3189 43.1447 24.8583L44.9704 22.3023C46.4852 23.5288 47.6068 24.0756 49.2247 24.0756C50.7377 24.0756 52.3293 22.9557 52.3293 21.5196C52.3293 19.8231 51.2601 18.9356 48.8857 18.9356H47.0058V16.1699H48.9888C50.8425 16.1699 52.4079 15.2561 52.4079 13.6138C52.4079 12.2825 51.4418 11.4718 49.9287 11.4718C48.545 11.4718 46.8503 11.8387 45.3635 12.466L44.3449 9.51681C45.8317 8.86339 47.8933 8.31654 50.2694 8.31654C53.451 8.31654 56.0874 9.67231 56.0874 12.9866C56.0874 15.4134 54.155 17.005 52.1196 17.5274C54.7298 17.9432 56.2691 19.561 56.2691 21.9895C56.2691 25.3807 53.4003 27.3637 49.8763 27.3637Z" fill="#8F7DC6"/>
<path fill-rule="evenodd" clip-rule="evenodd" d="M58.4877 20.7877C58.4877 24.9895 61.3583 27.3639 65.2456 27.3639C69.1085 27.3639 71.979 25.0158 71.979 20.8157C71.979 16.6138 69.1085 14.2395 65.2456 14.2395C61.3583 14.2395 58.4877 16.5876 58.4877 20.7877ZM61.9593 20.7877C61.9593 18.1006 63.1595 16.5876 65.2456 16.5876C67.309 16.5876 68.5075 18.1268 68.5075 20.8157C68.5075 23.5027 67.309 25.0158 65.2456 25.0158C63.1595 25.0158 61.9593 23.4765 61.9593 20.7877Z" fill="#8F7DC6"/>
<path d="M79.7771 27.3637C76.9066 27.3637 74.7402 26.3189 73.0437 24.8583L74.8712 22.3023C76.386 23.5288 77.5059 24.0756 79.1237 24.0756C80.6367 24.0756 82.2283 22.9557 82.2283 21.5196C82.2283 19.8231 81.1591 18.9356 78.7848 18.9356H76.9066V16.1699H78.8896C80.7433 16.1699 82.307 15.2561 82.307 13.6138C82.307 12.2825 81.3426 11.4718 79.8278 11.4718C78.4458 11.4718 76.7511 11.8387 75.2626 12.466L74.2457 9.51681C75.7325 8.86339 77.7924 8.31654 80.1685 8.31654C83.3517 8.31654 85.9882 9.67231 85.9882 12.9866C85.9882 15.4134 84.0558 17.005 82.0204 17.5274C84.6289 17.9432 86.1699 19.561 86.1699 21.9895C86.1699 25.3807 83.2993 27.3637 79.7771 27.3637Z" fill="#8F7DC6"/>
<path d="M90.2377 23.4243C91.2563 23.4243 92.0914 24.2856 92.0914 25.278C92.0914 26.2686 91.2563 27.102 90.2377 27.102C89.2471 27.102 88.412 26.2686 88.412 25.278C88.412 24.2856 89.2471 23.4243 90.2377 23.4243Z" fill="#8F7DC6"/>
<path fill-rule="evenodd" clip-rule="evenodd" d="M104.068 26.9738V24.3373C108.948 24.3373 112.313 22.1464 112.313 17.1095C112.313 12.0725 108.948 9.88162 104.068 9.88162V7.48107H100.205V9.88162C95.3271 9.88162 91.9342 12.0725 91.9342 17.1095C91.9342 22.1464 95.3271 24.3373 100.205 24.3373V26.9738H104.068ZM100.205 12.7521C97.5704 12.7521 95.6399 13.43 95.6399 17.1095C95.6399 20.7889 97.5704 21.4668 100.205 21.4668V12.7521ZM104.068 21.4668C106.703 21.4668 108.633 20.7889 108.633 17.1095C108.633 13.43 106.703 12.7521 104.068 12.7521V21.4668Z" fill="#231F20"/>
<path fill-rule="evenodd" clip-rule="evenodd" d="M132.063 17.8393C132.063 12.5944 128.854 8.31568 122.957 8.31568C117.06 8.31568 113.851 12.5944 113.851 17.8393C113.851 23.0841 117.06 27.3629 122.957 27.3629C128.854 27.3629 132.063 23.0841 132.063 17.8393ZM128.228 17.8393C128.228 22.0673 126.062 24.4155 122.957 24.4155C119.877 24.4155 117.712 22.0673 117.712 17.8393C117.712 13.613 119.877 11.2648 122.957 11.2648C126.062 11.2648 128.228 13.613 128.228 17.8393Z" fill="#231F20"/>
<path d="M151.215 26.9731L150.64 13.0922L145.813 26.9731H142.656L137.986 13.1166L137.306 26.9731H133.862L134.855 8.70688H140.281L144.457 21.3893L148.944 8.70688H154.241L155.076 26.9731H151.215Z" fill="#231F20"/>
<path d="M49.8763 27.3637C47.0058 27.3637 44.8411 26.3189 43.1447 24.8583L44.9704 22.3023C46.4852 23.5288 47.6068 24.0756 49.2247 24.0756C50.7377 24.0756 52.3293 22.9557 52.3293 21.5196C52.3293 19.8231 51.2601 18.9356 48.8857 18.9356H47.0058V16.1699H48.9888C50.8425 16.1699 52.4079 15.2561 52.4079 13.6138C52.4079 12.2825 51.4418 11.4718 49.9287 11.4718C48.545 11.4718 46.8503 11.8387 45.3635 12.466L44.3449 9.51681C45.8317 8.86339 47.8933 8.31654 50.2694 8.31654C53.451 8.31654 56.0874 9.67231 56.0874 12.9866C56.0874 15.4134 54.155 17.005 52.1196 17.5274C54.7298 17.9432 56.2691 19.561 56.2691 21.9895C56.2691 25.3807 53.4003 27.3637 49.8763 27.3637Z" fill="#8F7DC6"/>
<path fill-rule="evenodd" clip-rule="evenodd" d="M58.4877 20.7877C58.4877 24.9895 61.3583 27.3639 65.2456 27.3639C69.1085 27.3639 71.979 25.0158 71.979 20.8157C71.979 16.6138 69.1085 14.2395 65.2456 14.2395C61.3583 14.2395 58.4877 16.5876 58.4877 20.7877ZM61.9593 20.7877C61.9593 18.1006 63.1595 16.5876 65.2456 16.5876C67.309 16.5876 68.5075 18.1268 68.5075 20.8157C68.5075 23.5027 67.309 25.0158 65.2456 25.0158C63.1595 25.0158 61.9593 23.4765 61.9593 20.7877Z" fill="#8F7DC6"/>
<path d="M79.7771 27.3637C76.9066 27.3637 74.7402 26.3189 73.0437 24.8583L74.8712 22.3023C76.386 23.5288 77.5059 24.0756 79.1237 24.0756C80.6367 24.0756 82.2283 22.9557 82.2283 21.5196C82.2283 19.8231 81.1591 18.9356 78.7848 18.9356H76.9066V16.1699H78.8896C80.7433 16.1699 82.307 15.2561 82.307 13.6138C82.307 12.2825 81.3426 11.4718 79.8278 11.4718C78.4458 11.4718 76.7511 11.8387 75.2626 12.466L74.2457 9.51681C75.7325 8.86339 77.7924 8.31654 80.1685 8.31654C83.3517 8.31654 85.9882 9.67231 85.9882 12.9866C85.9882 15.4134 84.0558 17.005 82.0204 17.5274C84.6289 17.9432 86.1699 19.561 86.1699 21.9895C86.1699 25.3807 83.2993 27.3637 79.7771 27.3637Z" fill="#8F7DC6"/>
<path d="M90.2377 23.4243C91.2563 23.4243 92.0914 24.2856 92.0914 25.278C92.0914 26.2686 91.2563 27.102 90.2377 27.102C89.2471 27.102 88.412 26.2686 88.412 25.278C88.412 24.2856 89.2471 23.4243 90.2377 23.4243Z" fill="#8F7DC6"/>
<path fill-rule="evenodd" clip-rule="evenodd" d="M104.068 26.9738V24.3373C108.948 24.3373 112.313 22.1464 112.313 17.1095C112.313 12.0725 108.948 9.88162 104.068 9.88162V7.48107H100.205V9.88162C95.3271 9.88162 91.9342 12.0725 91.9342 17.1095C91.9342 22.1464 95.3271 24.3373 100.205 24.3373V26.9738H104.068ZM100.205 12.7521C97.5704 12.7521 95.6399 13.43 95.6399 17.1095C95.6399 20.7889 97.5704 21.4668 100.205 21.4668V12.7521ZM104.068 21.4668C106.703 21.4668 108.633 20.7889 108.633 17.1095C108.633 13.43 106.703 12.7521 104.068 12.7521V21.4668Z" fill="#231F20"/>
<path fill-rule="evenodd" clip-rule="evenodd" d="M132.063 17.8393C132.063 12.5944 128.854 8.31568 122.957 8.31568C117.06 8.31568 113.851 12.5944 113.851 17.8393C113.851 23.0841 117.06 27.3629 122.957 27.3629C128.854 27.3629 132.063 23.0841 132.063 17.8393ZM128.228 17.8393C128.228 22.0673 126.062 24.4155 122.957 24.4155C119.877 24.4155 117.712 22.0673 117.712 17.8393C117.712 13.613 119.877 11.2648 122.957 11.2648C126.062 11.2648 128.228 13.613 128.228 17.8393Z" fill="#231F20"/>
<path d="M151.215 26.9731L150.64 13.0922L145.813 26.9731H142.656L137.986 13.1166L137.306 26.9731H133.862L134.855 8.70688H140.281L144.457 21.3893L148.944 8.70688H154.241L155.076 26.9731H151.215Z" fill="#231F20"/>
<path d="M1.53174 12.7093C1.13165 12.3092 0.909762 11.7781 0.911509 11.2103C0.913256 10.6425 1.13689 10.1114 1.54047 9.71301C1.93533 9.32514 2.46121 9.11025 3.0168 9.11025C3.57588 9.11025 4.10351 9.32689 4.50011 9.72349L6.58967 11.8165L10.3565 8.0445C10.7548 7.64965 11.2825 7.43301 11.8415 7.43301C12.3971 7.43301 12.9213 7.6479 13.3179 8.03751C13.7214 8.43411 13.9451 8.96349 13.9468 9.53305C13.9486 10.1009 13.7267 10.6337 13.3248 11.0321L6.58967 17.8267L1.53174 12.7093Z" fill="#8F7DC6"/>
</svg>
